<svg xmlns="http://www.w3.org/2000/svg" width="197mm" height="223.317" viewBox="0 0 558.425 167.487"><defs><style>.a{fill:#1ed760}</style></defs><path class="a" d="M83.748 0a83.743 83.743 0 1083.743 83.742A83.743 83.743 0 0083.748 0zm38.4 120.787a5.215 5.215 0 01-7.176 1.737c-19.666-12.019-44.418-14.734-73.568-8.075a5.218 5.218 0 11-2.323-10.174c31.9-7.293 59.263-4.154 81.336 9.334a5.219 5.219 0 011.731 7.178zm10.247-22.8a6.532 6.532 0 01-8.98 2.15C100.911 86.3 66.594 82.293 39.969 90.375a6.528 6.528 0 11-3.795-12.493c30.416-9.229 68.226-4.759 94.074 11.126a6.53 6.53 0 012.148 8.976zm.884-23.744c-26.994-16.031-71.52-17.5-97.289-9.684a7.833 7.833 0 11-4.542-14.993c29.581-8.979 78.755-7.245 109.831 11.2a7.833 7.833 0 01-7.995 13.472zM227.837 77.309c-14.459-3.448-17.034-5.868-17.034-10.952 0-4.8 4.524-8.037 11.25-8.037 6.52 0 12.984 2.455 19.763 7.509a.945.945 0 00.715.174.929.929 0 00.625-.386l7.06-9.952a.949.949 0 00-.18-1.288 42.715 42.715 0 00-27.769-9.62c-15.612 0-26.519 9.366-26.519 22.774 0 14.375 9.407 19.465 25.663 23.394 13.836 3.187 16.171 5.856 16.171 10.63 0 5.289-4.722 8.577-12.321 8.577-8.439 0-15.324-2.843-23.025-9.512a1 1 0 00-.7-.226.939.939 0 00-.649.334l-7.916 9.421a.94.94 0 00.093 1.313 47.2 47.2 0 0031.884 12.225c16.823 0 27.694-9.193 27.694-23.42-.005-12.024-7.189-18.674-24.805-22.958zM290.698 63.049c-7.292 0-13.273 2.872-18.2 8.757v-6.624a.949.949 0 00-.947-.949H258.6a.948.948 0 00-.946.949v73.6a.948.948 0 00.946.949h12.948a.949.949 0 00.947-.949v-23.23a23.255 23.255 0 0018.2 8.24c13.549 0 27.265-10.43 27.265-30.368s-13.712-30.375-27.262-30.375zm12.212 30.374c0 10.153-6.254 17.238-15.209 17.238-8.853 0-15.531-7.407-15.531-17.238s6.678-17.238 15.531-17.238c8.811.001 15.209 7.249 15.209 17.238zM353.121 63.049c-17.449 0-31.119 13.436-31.119 30.592 0 16.969 13.576 30.264 30.9 30.264 17.511 0 31.223-13.391 31.223-30.481.005-17.033-13.613-30.375-31.004-30.375zm0 47.719c-9.281 0-16.278-7.457-16.278-17.344 0-9.928 6.755-17.134 16.064-17.134 9.341 0 16.385 7.457 16.385 17.351 0 9.927-6.801 17.127-16.171 17.127zM421.392 64.233h-14.244V49.667a.946.946 0 00-.945-.948h-12.948a.95.95 0 00-.95.948v14.566h-6.225a.946.946 0 00-.943.949v11.127a.946.946 0 00.943.948h6.225v28.792c0 11.635 5.791 17.534 17.212 17.534a23.617 23.617 0 0012.128-3.018.945.945 0 00.479-.821v-10.6a.95.95 0 00-1.372-.85 16.315 16.315 0 01-7.6 1.834c-4.153 0-6.007-1.885-6.007-6.112V77.257h14.247a.946.946 0 00.944-.948V65.182a.946.946 0 00-.944-.949zM471.029 64.29v-1.789c0-5.263 2.018-7.61 6.544-7.61a21.844 21.844 0 017.3 1.346.947.947 0 001.245-.9V44.423a.947.947 0 00-.669-.909 35.535 35.535 0 00-10.761-1.546c-11.959 0-18.279 6.734-18.279 19.467v2.74h-6.219a.952.952 0 00-.951.948v11.186a.952.952 0 00.951.948h6.219v44.41a.946.946 0 00.944.948h12.946a.95.95 0 00.949-.948v-44.41h12.088l18.517 44.4c-2.1 4.665-4.169 5.593-6.991 5.593a14.932 14.932 0 01-7.139-2.025.972.972 0 00-.754-.071.959.959 0 00-.56.512l-4.388 9.627a.941.941 0 00.407 1.225 27.265 27.265 0 0013.827 3.54c9.56 0 14.844-4.454 19.5-16.434l22.461-58.04a.946.946 0 00-.879-1.292h-13.48a.951.951 0 00-.9.635l-13.804 39.436-15.123-39.464a.943.943 0 00-.884-.609z"/><rect class="a" x="428.357" y="64.234" width="14.844" height="58.382" rx=".949"/><path class="a" d="M435.848 38.514a9.285 9.285 0 109.285 9.282 9.287 9.287 0 00-9.285-9.282zM549.267 82.394a9.136 9.136 0 119.159-9.164 9.075 9.075 0 01-9.159 9.164zm.048-17.365a8.227 8.227 0 108.153 8.2 8.147 8.147 0 00-8.153-8.2zm2.02 9.138l2.577 3.608h-2.173l-2.32-3.309h-1.994v3.309h-1.819v-9.564h4.265c2.221 0 3.683 1.137 3.683 3.051a2.853 2.853 0 01-2.219 2.905zm-1.538-4.315h-2.372v3.025h2.372c1.184 0 1.891-.579 1.891-1.514 0-.984-.707-1.511-1.891-1.511z"/></svg>